# xmcd
#
# Track frame offsets:
#	150
#	11762
#	29926
#	41648
#	53370
#	72070
#	85347
#	103097
#	112834
#	127386
#
# Disc length: 1894 seconds
#
# Revision: 0
# Processed by: cddbd v1.4PL0 Copyright (c) Steve Scherf et al.
# Submitted via: EasyCDDAExtractor 4.5.0.2
#
DISCID=8707640a
DTITLE=Vince Gill - Pocket Full of Gold
DYEAR=1991
DGENRE=Country
TTITLE0=I Quit
TTITLE1=Look At Us
TTITLE2=Take Your Memory With You
TTITLE3=Pocket Full Of Gold
TTITLE4=The Strings That Tie You Down
TTITLE5=Liza Jane
TTITLE6=If I Didn't Have You In My World
TTITLE7=A Little Left Over
TTITLE8=What's A Man To Do
TTITLE9=Sparkle
EXTD=
EXTT0=
EXTT1=
EXTT2=
EXTT3=
EXTT4=
EXTT5=
EXTT6=
EXTT7=
EXTT8=
EXTT9=
PLAYORDER=
